[   0s] CDP targets: 1
[   0s]   page: file:///Users/runner/.comfy-test-cache/desktop/ComfyUI.app/Contents/Resources/desktop-ui/index.html#/welcome | ComfyUI
[   1s] Main page: file:///Users/runner/.comfy-test-cache/desktop/ComfyUI.app/Contents/Resources/desktop-ui/index.html#/welcome | ComfyUI
[   1s] Buttons: ['Get Started']
[   1s]   wizard: COMFY_TEST_GPU=0 platform=darwin preferred=['Apple Silicon', 'MPS', 'M4', 'M3', 'M2', 'M1']
[   1s]   clicked [BTN|Get Started]
[   3s]   url: file:///Users/runner/.comfy-test-cache/desktop/ComfyUI.app/Contents/Resources/desktop-ui/index.html#/welcome -> file:///Users/runner/.comfy-test-cache/desktop/ComfyUI.app/Contents/Resources/desktop-ui/index.html#/install
[   4s]   clicked [BTN|Next]
[  10s]   clicked [BTN|Next]
[  13s]   clicked [BTN|Install]
[  14s]   url: file:///Users/runner/.comfy-test-cache/desktop/ComfyUI.app/Contents/Resources/desktop-ui/index.html#/install -> file:///Users/runner/.comfy-test-cache/desktop/ComfyUI.app/Contents/Resources/desktop-ui/index.html#/server-start
[ 127s]   /system_stats up after 125s
[ 127s]   app: waiting for backend stability (continuous /system_stats up for 30s)
[ 127s]   app: /system_stats up; awaiting 30s of stability
[ 157s]   app: backend stable for 30s; proceeding
[ 157s]   capturing canvas load...
[ 165s]   post: waiting for Cloud upsell
[ 166s]   post: clicked Cloud upsell via [button:has-text("Continue Locally"):visible]
[ 168s]   post: waiting for Close Templates
[ 177s]   post: Close Templates not found, skipping
[ 177s]   post: pressed Escape (Close Templates fallback)
[ 179s]   post: waiting for Extensions
[ 180s]   post: clicked Extensions via [button[aria-label="Extensions"]:visible]
[ 183s]   ext: node meta = display='SAM3' publisher='pznodes' version='0.1.15'
[ 186s]   ext: searching "SAM3"
[ 189s]   ext: clicking SAM3 by pznodes tile
[ 193s]   ext: scrolling to + opening version selector
[ 197s]   ext: selected 0.1.15
[ 198s]   ext: clicking right-panel Install
[ 200s]   ext: clicked Install (last of 8 visible)
[ 208s]   ext: waiting for "Apply Changes" toast
[ 252s]   ext: clicked Apply Changes
[ 258s]   app: Apply Changes already triggered in-app restart, skipping pkill
[ 263s]   app: relaunching with CDP
[ 263s]   app: waiting for CDP
[ 263s]   app: CDP up after 1s
[ 263s]   app: reconnecting Playwright
[ 263s]   app: attached to http://127.0.0.1:8000/
[ 280s]   app: server ready after 8s
[ 280s]   app: waiting for main canvas (window.app.graph)
[ 280s]   app: canvas ready after 1s (http://127.0.0.1:8000/)
[ 285s]   app: forcing renderer reload to refresh node-pack manifest
[ 288s]   app: canvas re-ready after reload in 2s
[ 291s]   ext: closing Nodes Manager dialog
[ 291s]   ext: dismissing What's New popup
[ 292s]   ext: closed What's New popup
[ 294s]   ext: dismissing Node Pack Issues modal (if present)
[ 294s]   ext: Node Pack Issues modal not present
[ 294s]   ext: opening Templates sidebar
[ 294s]   ext: clicked Templates
[ 299s]   ext: locating "comfyui-sam3" section in Templates panel
[ 300s]   ext: clicked comfyui-sam3 section
[ 303s]   ext: fetching comfy-test.toml from https://raw.githubusercontent.com/PozzettiAndrea/ComfyUI-SAM3/main/comfy-test.toml
[ 303s]   ext: cpu spec = exclude ['video_point_prompt']
[ 303s]   ext: picking first matching comfyui-sam3 template
[ 303s]   ext: 5 visible cards
[ 303s]   ext: skipping video_point_prompt (not in CPU list)
[ 305s]   ext: clicked template scene_seg_interactive
[ 310s]   ext: installing WS execution listener
[ 310s]   ext: clicking Run
[ 311s]   ext: clicked Run
[ 311s]   ext: waiting for execution_success / execution_error
[ 462s]   ext: WS events=225 elapsed=150s
[ 462s]     ws: {'type': 'progress', 'ts': 1778382460493}
[ 462s]     ws: {'type': 'progress_state', 'ts': 1778382460541}
[ 462s]     ws: {'type': 'progress_state', 'ts': 1778382460548}
[ 462s]     ws: {'type': 'executing', 'ts': 1778382460550}
[ 462s]     ws: {'type': 'progress_state', 'ts': 1778382537304}
[ 462s]     ws: {'type': 'progress', 'ts': 1778382537483}
[ 462s]     ws: {'type': 'executed', 'ts': 1778382545309}
[ 462s]     ws: {'type': 'progress_state', 'ts': 1778382545334}
[ 462s]     ws: {'type': 'progress_state', 'ts': 1778382545339}
[ 462s]     ws: {'type': 'executing', 'ts': 1778382545339}
[ 462s]     ws: {'type': 'executed', 'ts': 1778382546047}
[ 462s]     ws: {'type': 'progress_state', 'ts': 1778382546057}
[ 462s]     ws: {'type': 'execution_success', 'ts': 1778382546069}
[ 462s]     ws: {'type': 'status', 'ts': 1778382548425}
[ 462s]     ws: {'type': 'executing', 'ts': 1778382548425}
[ 462s]   ext: execution_success after 150s
[ 468s]   ext: fetching comfy-test.toml from https://raw.githubusercontent.com/PozzettiAndrea/ComfyUI-SAM3/main/comfy-test.toml
[ 468s]   ext: cpu spec = exclude ['video_point_prompt']
[ 468s]   loop: workflows/ from $COMFY_TEST_WORKFLOWS -> ['image_seg_point', 'image_seg_text', 'scene_seg', 'scene_seg_interactive', 'video_point_prompt']
[ 468s]   loop: spec=exclude items=['video_point_prompt'] -> 4 workflow(s) ['image_seg_point', 'image_seg_text', 'scene_seg', 'scene_seg_interactive']
[ 468s]   loop: matching=4 first_ran='scene_seg_interactive' remaining=3 -> ['image_seg_point', 'image_seg_text', 'scene_seg']
[ 468s]   loop: full restart for workflow 2/4 (image_seg_point)
[ 468s]   loop: closing current browser
[ 468s]   loop: killing ComfyUI process
[ 473s]   loop: launching ComfyUI with --remote-debugging-port=0
[ 473s]   loop: waiting for DevToolsActivePort at /Users/runner/Library/Application Support/ComfyUI/DevToolsActivePort
[ 476s]   loop: DevToolsActivePort -> 49961 after 3s
[ 476s]   loop: reconnecting Playwright on port 49961
[ 477s]   loop: attached to file:///Users/runner/.comfy-test-cache/desktop/ComfyUI.app/Contents/Resources/desktop-ui/index.html#/desktop-start
[ 497s]   loop: server ready after 16s
[ 497s]   loop: canvas ready after 1s
[ 497s]   loop: forcing renderer reload
[ 500s]   loop: canvas ready after 2s
[ 503s]   ext: closing Nodes Manager dialog
[ 503s]   ext: dismissing What's New popup
[ 503s]   ext: What's New popup not present
[ 503s]   ext: dismissing Node Pack Issues modal (if present)
[ 503s]   ext: Node Pack Issues modal not present
[ 503s]   ext: opening Templates sidebar
[ 504s]   ext: clicked Templates
[ 508s]   ext: locating "comfyui-sam3" section in Templates panel
[ 510s]   ext: clicked comfyui-sam3 section
[ 512s]   ext: clicking template image_seg_point
[ 515s]   ext: clicked template image_seg_point
[ 520s]   ext: installing WS execution listener
[ 520s]   ext: clicking Run
[ 521s]   ext: clicked Run
[ 521s]   ext: waiting for execution_success / execution_error
[ 600s]   ext: WS events=26 elapsed=79s
[ 600s]     ws: {'type': 'progress_state', 'ts': 1778382618245}
[ 600s]     ws: {'type': 'executing', 'ts': 1778382618245}
[ 600s]     ws: {'type': 'progress_state', 'ts': 1778382618271}
[ 600s]     ws: {'type': 'progress_state', 'ts': 1778382618274}
[ 600s]     ws: {'type': 'executing', 'ts': 1778382618274}
[ 600s]     ws: {'type': 'progress_state', 'ts': 1778382685932}
[ 600s]     ws: {'type': 'progress_state', 'ts': 1778382686148}
[ 600s]     ws: {'type': 'executing', 'ts': 1778382686149}
[ 600s]     ws: {'type': 'executed', 'ts': 1778382686393}
[ 600s]     ws: {'type': 'progress_state', 'ts': 1778382686429}
[ 600s]     ws: {'type': 'progress_state', 'ts': 1778382686435}
[ 600s]     ws: {'type': 'executing', 'ts': 1778382686435}
[ 600s]     ws: {'type': 'executed', 'ts': 1778382686530}
[ 600s]     ws: {'type': 'progress_state', 'ts': 1778382686536}
[ 600s]     ws: {'type': 'execution_success', 'ts': 1778382686586}
[ 600s]   ext: execution_success after 79s
[ 606s]   loop: full restart for workflow 3/4 (image_seg_text)
[ 606s]   loop: closing current browser
[ 606s]   loop: killing ComfyUI process
[ 611s]   loop: launching ComfyUI with --remote-debugging-port=0
[ 611s]   loop: waiting for DevToolsActivePort at /Users/runner/Library/Application Support/ComfyUI/DevToolsActivePort
[ 613s]   loop: DevToolsActivePort -> 50167 after 2s
[ 613s]   loop: reconnecting Playwright on port 50167
[ 613s]   loop: attached to file:///Users/runner/.comfy-test-cache/desktop/ComfyUI.app/Contents/Resources/desktop-ui/index.html#/desktop-start
[ 627s]   loop: server ready after 12s
[ 632s]   loop: canvas ready after 3s
[ 632s]   loop: forcing renderer reload
[ 635s]   loop: canvas ready after 2s
[ 638s]   ext: closing Nodes Manager dialog
[ 638s]   ext: dismissing What's New popup
[ 638s]   ext: What's New popup not present
[ 638s]   ext: dismissing Node Pack Issues modal (if present)
[ 638s]   ext: Node Pack Issues modal not present
[ 638s]   ext: opening Templates sidebar
[ 639s]   ext: clicked Templates
[ 643s]   ext: locating "comfyui-sam3" section in Templates panel
[ 645s]   ext: clicked comfyui-sam3 section
[ 647s]   ext: clicking template image_seg_text
[ 650s]   ext: clicked template image_seg_text
[ 655s]   ext: installing WS execution listener
[ 655s]   ext: clicking Run
[ 656s]   ext: clicked Run
[ 656s]   ext: waiting for execution_success / execution_error
[ 709s]   ext: WS events=13 elapsed=53s
[ 709s]     ws: {'type': 'status', 'ts': 1778382742443}
[ 709s]     ws: {'type': 'status', 'ts': 1778382742446}
[ 709s]     ws: {'type': 'execution_start', 'ts': 1778382742460}
[ 709s]     ws: {'type': 'execution_cached', 'ts': 1778382742461}
[ 709s]     ws: {'type': 'progress_state', 'ts': 1778382742464}
[ 709s]     ws: {'type': 'executing', 'ts': 1778382742465}
[ 709s]     ws: {'type': 'progress_state', 'ts': 1778382742653}
[ 709s]     ws: {'type': 'progress_state', 'ts': 1778382742659}
[ 709s]     ws: {'type': 'executing', 'ts': 1778382742659}
[ 709s]     ws: {'type': 'progress_state', 'ts': 1778382748928}
[ 709s]     ws: {'type': 'progress_state', 'ts': 1778382748938}
[ 709s]     ws: {'type': 'executing', 'ts': 1778382748954}
[ 709s]     ws: {'type': 'execution_error', 'ts': 1778382795907}
[ 709s]   ext: execution_error data:
[ 709s] {
  "prompt_id": "64567ded-88d5-4f1e-aa7d-aac0b3785fca",
  "node_id": "15",
  "node_type": "SAM3Grounding",
  "executed": [
    "1",
    "12"
  ],
  "exception_message": "[srcBuf length] > 0 INTERNAL ASSERT FAILED at \"/Users/runner/work/pytorch/pytorch/pytorch/aten/src/ATen/native/mps/OperationUtils.mm\":554, please report a bug to PyTorch. Placeholder tensor is empty!\n\nWorker traceback:\nTraceback (most recent call last):\n  File \"/var/folders/tb/y368xp_x10s3ty1b_mtl5mxr0000gn/T/comfyui_pvenv_ieg5p5ee/persistent_worker.py\", line 1762, in main\n    result = method(**inputs)\n             ^^^^^^^^^^^^^^^^\n  File \"/Users/runner/.comfy-test-cache/desktop/ComfyUI.app/Contents/Resources/ComfyUI/comfy_api/latest/_io.py\", line 1826, in EXECUTE_NORMALIZED\n    to_return = cls.execute(*args, **kwargs)\n                ^^^^^^^^^^^^^^^^^^^^^^^^^^^^\n  File \"/Users/runner/Documents/ComfyUI/custom_nodes/comfyui-sam3/nodes/segmentation.py\", line 111, in execute\n    result = cls._segment_grounding(\n             ^^^^^^^^^^^^^^^^^^^^^^^\n  File \"/Users/runner/Documents/ComfyUI/custom_nodes/comfyui-sam3/nodes/segmentation.py\", line 138, in _segment_grounding\n    state = processor.set_text_prompt(text_prompt.strip(), state)\n            ^^^^^^^^^^^^^^^^^^^^^^^^^^^^^^^^^^^^^^^^^^^^^^^^^^^^^\n  File \"/Users/runner/Documents/ComfyUI/.ce/.pixi/envs/sam3-nodes/lib/python3.12/site-packages/torch/utils/_contextlib.py\", line 124, in decorate_context\n    return func(*args, **kwargs)\n           ^^^^^^^^^^^^^^^^^^^^^\n  File \"/Users/runner/Documents/ComfyUI/custom_nodes/comfyui-sam3/nodes/sam3/utils.py\", line 1393, in set_text_prompt\n    return self._forward_grounding(state)\n           ^^^^^^^^^^^^^^^^^^^^^^^^^^^^^^\n  File \"/Users/runner/Documents/ComfyUI/.ce/.pixi/envs/sam3-nodes/lib/python3.12/site-packages/torch/utils/_contextlib.py\", line 124, in decorate_context\n    return func(*args, **kwargs)\n           ^^^^^^^^^^^^^^^^^^^^^\n  File \"/Users/runner/Documents/ComfyUI/custom_nodes/comfyui-sam3/nodes/sam3/utils.py\", line 1477, in _forward_grounding\n    outputs = self.model.forward_grounding(\n              ^^^^^^^^^^^^^^^^^^^^^^^^^^^^^\n  File \"/Users/runner/Documents/ComfyUI/custom_nodes/comfyui-sam3/nodes/sam3/model.py\", line 3810, in forward_grounding\n    prompt, prompt_mask, backbone_out = self._encode_prompt(\n                                        ^^^^^^^^^^^^^^^^^^^^\n  File \"/Users/runner/Documents/ComfyUI/custom_nodes/comfyui-sam3/nodes/sam3/model.py\", line 3552, in _encode_prompt\n    geo_feats, geo_masks = self.geometry_encoder(\n                           ^^^^^^^^^^^^^^^^^^^^^^\n  File \"/Users/runner/Documents/ComfyUI/.ce/.pixi/envs/sam3-nodes/lib/python3.12/site-packages/torch/nn/modules/module.py\", line 1776, in _wrapped_call_impl\n    return self._call_impl(*args, **kwargs)\n           ^^^^^^^^^^^^^^^^^^^^^^^^^^^^^^^^\n  File \"/Users/runner/Documents/ComfyUI/.ce/.pixi/envs/sam3-nodes/lib/python3.12/site-packages/torch/nn/modules/module.py\", line 1787, in _call_impl\n    return forward_call(*args, **kwargs)\n           ^^^^^^^^^^^^^^^^^^^^^^^^^^^^^\n  File \"/Users/runner/Documents/ComfyUI/custom_nodes/comfyui-sam3/nodes/sam3/model.py\", line 2483, in forward\n    final_embeds, final_mask = self._encode_points(\n                               ^^^^^^^^^^^^^^^^^^^^\n  File \"/Users/runner/Documents/ComfyUI/custom_nodes/comfyui-sam3/nodes/sam3/model.py\", line 2344, in _encode_points\n    sampled = torch.nn.functional.grid_sample(img_feats, grid, align_corners=False)\n              ^^^^^^^^^^^^^^^^^^^^^^^^^^^^^^^^^^^^^^^^^^^^^^^^^^^^^^^^^^^^^^^^^^^^^\n  File \"/Users/runner/Documents/ComfyUI/.ce/.pixi/envs/sam3-nodes/lib/python3.12/site-packages/torch/nn/functional.py\", line 5230, in grid_sample\n    return torch.grid_sampler(input, grid, mode_enum, padding_mode_enum, align_corners)\n           ^^^^^^^^^^^^^^^^^^^^^^^^^^^^^^^^^^^^^^^^^^^^^^^^^^^^^^^^^^^^^^^^^^^^^^^^^^^^\nRuntimeError: [srcBuf length] > 0 INTERNAL ASSERT FAILED at \"/Users/runner/work/pytorch/pytorch/pytorch/aten/src/ATen/native/mps/OperationUtils.mm\":554, please report a bug to PyTorch. Placeholder tensor is empty!\n\n",
  "exception_type": "comfy_env.isolation.workers.base.WorkerError",
  "traceback": [
    "  File \"/Users/runner/.comfy-test-cache/desktop/ComfyUI.app/Contents/Resources/ComfyUI/execution.py\", line 534, in execute\n    output_data, output_ui, has_subgraph, has_pending_tasks = await get_output_data(prompt_id, unique_id, obj, input_data_all, execution_block_cb=execution_block_cb, pre_execute_cb=pre_execute_cb, v3_data=v3_data)\n                                                              ^^^^^^^^^^^^^^^^^^^^^^^^^^^^^^^^^^^^^^^^^^^^^^^^^^^^^^^^^^^^^^^^^^^^^^^^^^^^^^^^^^^^^^^^^^^^^^^^^^^^^^^^^^^^^^^^^^^^^^^^^^^^^^^^^^^^^^^^^^^^^^^^^^^^^^^\n",
    "  File \"/Users/runner/.comfy-test-cache/desktop/ComfyUI.app/Contents/Resources/ComfyUI/execution.py\", line 334, in get_output_data\n    return_values = await _async_map_node_over_list(prompt_id, unique_id, obj, input_data_all, obj.FUNCTION, allow_interrupt=True, execution_block_cb=execution_block_cb, pre_execute_cb=pre_execute_cb, v3_data=v3_data)\n                    ^^^^^^^^^^^^^^^^^^^^^^^^^^^^^^^^^^^^^^^^^^^^^^^^^^^^^^^^^^^^^^^^^^^^^^^^^^^^^^^^^^^^^^^^^^^^^^^^^^^^^^^^^^^^^^^^^^^^^^^^^^^^^^^^^^^^^^^^^^^^^^^^^^^^^^^^^^^^^^^^^^^^^^^^^^^^^^^^^^^^^^^^^^^^^^^^^^^^^\n",
    "  File \"/Users/runner/.comfy-test-cache/desktop/ComfyUI.app/Contents/Resources/ComfyUI/execution.py\", line 308, in _async_map_node_over_list\n    await process_inputs(input_dict, i)\n",
    "  File \"/Users/runner/.comfy-test-cache/desktop/ComfyUI.app/Contents/Resources/ComfyUI/execution.py\", line 296, in process_inputs\n    result = f(**inputs)\n             ^^^^^^^^^^^\n",
    "  File \"/Users/runner/Documents/ComfyUI/.venv/lib/python3.12/site-packages/comfy_env/isolation/metadata.py\", line 536, in proxy\n    result = worker.call_method(\n             ^^^^^^^^^^^^^^^^^^^\n",
    "  File \"/Users/runner/Documents/ComfyUI/.venv/lib/python3.12/site-packages/comfy_env/isolation/workers/subprocess.py\", line 674, in call_method\n    raise WorkerError(\n"
  ],
  "current_inputs": {
    "confidence_threshold": [
      0.2
    ],
    "text_prompt": [
      "child"
    ],
    "max_detections": [
      -1
    ],
    "sam3_model_config": [
      "{'checkpoint_path': '/Users/runner/Documents/ComfyUI/models/sam3/sam3.safetensors', 'bpe_path': '/Users/runner/Documents/ComfyUI/custom_nodes/comfyui-sam3/nodes/sam3/bpe_simple_vocab_16e6.txt.gz', 'precision': 'auto', 'dtype': 'bf16', 'compile': False}"
    ],
    "image": [
      "tensor([[[[0.2902, 0.4667, 0.5961],\n          [0.2902, 0.4667, 0.5961],\n          [0.2902, 0.4667, 0.5961],\n          ...,\n          [0.3216, 0.5804, 0.7176],\n          [0.3333, 0.6000, 0.7451],\n          [0.3529, 0.6196, 0.7647]],\n\n         [[0.2902, 0.4667, 0.5961],\n          [0.2902, 0.4667, 0.5961],\n          [0.2902, 0.4667, 0.5961],\n          ...,\n          [0.3373, 0.5686, 0.6941],\n          [0.3412, 0.5725, 0.7059],\n          [0.3490, 0.5843, 0.7176]],\n\n         [[0.2902, 0.4667, 0.5961],\n          [0.2902, 0.4667, 0.5961],\n          [0.2902, 0.4667, 0.5961],\n          ...,\n          [0.3686, 0.5412, 0.6471],\n          [0.3647, 0.5373, 0.6431],\n          [0.3686, 0.5412, 0.6471]],\n\n         ...,\n\n         [[0.4941, 0.4824, 0.4157],\n          [0.4941, 0.4824, 0.4157],\n          [0.4980, 0.4863, 0.4196],\n          ...,\n          [0.5647, 0.5569, 0.5059],\n          [0.5647, 0.5569, 0.5059],\n          [0.5647, 0.5569, 0.5059]],\n\n         [[0.5098, 0.4980, 0.4314],\n          [0.5098, 0.4980, 0.4314],\n          [0.5137, 0.5020, 0.4353],\n          ...,\n          [0.5647, 0.5569, 0.5059],\n          [0.5647, 0.5569, 0.5059],\n          [0.5647, 0.5569, 0.5059]],\n\n         [[0.5176, 0.5059, 0.4392],\n          [0.5216, 0.5098, 0.4431],\n          [0.5255, 0.5137, 0.4471],\n          ...,\n          [0.5647, 0.5569, 0.5059],\n          [0.5647, 0.5569, 0.5059],\n          [0.5647, 0.5569, 0.5059]]]])"
    ]
  },
  "current_outputs": [
    "3",
    "4",
    "1",
    "12",
    "15"
  ],
  "timestamp": 1778382795836
}
[ 714s]   loop: full restart for workflow 4/4 (scene_seg)
[ 714s]   loop: closing current browser
[ 714s]   loop: killing ComfyUI process
[ 720s]   loop: launching ComfyUI with --remote-debugging-port=0
[ 720s]   loop: waiting for DevToolsActivePort at /Users/runner/Library/Application Support/ComfyUI/DevToolsActivePort
[ 722s]   loop: DevToolsActivePort -> 50358 after 3s
[ 722s]   loop: reconnecting Playwright on port 50358
[ 723s]   loop: attached to file:///Users/runner/.comfy-test-cache/desktop/ComfyUI.app/Contents/Resources/desktop-ui/index.html#/server-start
[ 732s]   loop: server ready after 9s
[ 736s]   loop: canvas ready after 3s
[ 736s]   loop: forcing renderer reload
[ 738s]   loop: canvas ready after 2s
[ 741s]   ext: closing Nodes Manager dialog
[ 741s]   ext: dismissing What's New popup
[ 741s]   ext: What's New popup not present
[ 741s]   ext: dismissing Node Pack Issues modal (if present)
[ 741s]   ext: Node Pack Issues modal not present
[ 741s]   ext: opening Templates sidebar
[ 741s]   ext: clicked Templates
[ 746s]   ext: locating "comfyui-sam3" section in Templates panel
[ 748s]   ext: clicked comfyui-sam3 section
[ 750s]   ext: clicking template scene_seg
[ 752s]   ext: clicked template scene_seg
[ 757s]   ext: installing WS execution listener
[ 757s]   ext: clicking Run
[ 758s]   ext: clicked Run
[ 758s]   ext: waiting for execution_success / execution_error
[ 886s]   ext: WS events=53 elapsed=127s
[ 886s]     ws: {'type': 'progress_state', 'ts': 1778382964482}
[ 886s]     ws: {'type': 'progress_state', 'ts': 1778382964485}
[ 886s]     ws: {'type': 'executing', 'ts': 1778382964486}
[ 886s]     ws: {'type': 'progress_state', 'ts': 1778382969411}
[ 886s]     ws: {'type': 'progress_state', 'ts': 1778382969447}
[ 886s]     ws: {'type': 'executing', 'ts': 1778382969449}
[ 886s]     ws: {'type': 'progress_state', 'ts': 1778382970141}
[ 886s]     ws: {'type': 'progress_state', 'ts': 1778382970144}
[ 886s]     ws: {'type': 'executing', 'ts': 1778382970145}
[ 886s]     ws: {'type': 'executed', 'ts': 1778382970640}
[ 886s]     ws: {'type': 'progress_state', 'ts': 1778382970658}
[ 886s]     ws: {'type': 'progress_state', 'ts': 1778382970666}
[ 886s]     ws: {'type': 'executing', 'ts': 1778382970667}
[ 886s]     ws: {'type': 'progress_state', 'ts': 1778382971757}
[ 886s]     ws: {'type': 'execution_success', 'ts': 1778382971766}
[ 886s]   ext: execution_success after 127s
[ 891s] Captured 893 frames
[ 892s] Wrote /Users/runner/work/comfy-gpu-ci/comfy-gpu-ci/comfy-test-logs/SAM3-0300/dev/macos-desktop/results.json (4 workflow(s), sha=d0c359e3cec4)
ffmpeg version 7.1 Copyright (c) 2000-2024 the FFmpeg developers
  built with Apple clang version 13.1.6 (clang-1316.0.21.2.5)
  configuration: --prefix=/Volumes/tempdisk/sw --extra-cflags=-fno-stack-check --arch=arm64 --cc=/usr/bin/clang --enable-gpl --enable-libvmaf --enable-libopenjpeg --enable-libopus --enable-libmp3lame --enable-libx264 --enable-libx265 --enable-libvpx --enable-libwebp --enable-libass --enable-libfreetype --enable-fontconfig --enable-libtheora --enable-libvorbis --enable-libsnappy --enable-libaom --enable-libvidstab --enable-libzimg --enable-libsvtav1 --enable-libharfbuzz --enable-libkvazaar --pkg-config-flags=--static --enable-ffplay --enable-postproc --enable-neon --enable-runtime-cpudetect --disable-indev=qtkit --disable-indev=x11grab_xcb
  libavutil      59. 39.100 / 59. 39.100
  libavcodec     61. 19.100 / 61. 19.100
  libavformat    61.  7.100 / 61.  7.100
  libavdevice    61.  3.100 / 61.  3.100
  libavfilter    10.  4.100 / 10.  4.100
  libswscale      8.  3.100 /  8.  3.100
  libswresample   5.  3.100 /  5.  3.100
  libpostproc    58.  3.100 / 58.  3.100
Input #0, image2, from '/Users/runner/work/comfy-gpu-ci/comfy-gpu-ci/comfy-test-logs/SAM3-0300/dev/macos-desktop/debug/electron_inspect/frames/frame_%06d.png':
  Duration: 00:02:58.60, start: 0.000000, bitrate: N/A
  Stream #0:0: Video: png, rgb24(pc, gbr/bt709/iec61966-2-1), 1024x656, 5 fps, 5 tbr, 5 tbn
Stream mapping:
  Stream #0:0 -> #0:0 (png (native) -> h264 (libx264))
Press [q] to stop, [?] for help
[libx264 @ 0x123607c40] using cpu capabilities: ARMv8 NEON
[libx264 @ 0x123607c40] profile High, level 3.1, 4:2:0, 8-bit
[libx264 @ 0x123607c40] 264 - core 164 r3190 7ed753b - H.264/MPEG-4 AVC codec - Copyleft 2003-2024 - http://www.videolan.org/x264.html - options: cabac=1 ref=3 deblock=1:0:0 analyse=0x3:0x113 me=hex subme=7 psy=1 psy_rd=1.00:0.00 mixed_ref=1 me_range=16 chroma_me=1 trellis=1 8x8dct=1 cqm=0 deadzone=21,11 fast_pskip=1 chroma_qp_offset=-2 threads=4 lookahead_threads=1 sliced_threads=0 nr=0 decimate=1 interlaced=0 bluray_compat=0 constrained_intra=0 bframes=3 b_pyramid=2 b_adapt=1 b_bias=0 direct=1 weightb=1 open_gop=0 weightp=2 keyint=250 keyint_min=5 scenecut=40 intra_refresh=0 rc_lookahead=40 rc=crf mbtree=1 crf=23.0 qcomp=0.60 qpmin=0 qpmax=69 qpstep=4 ip_ratio=1.40 aq=1:1.00
Output #0, mp4, to '/Users/runner/work/comfy-gpu-ci/comfy-gpu-ci/comfy-test-logs/SAM3-0300/dev/macos-desktop/debug/electron_inspect/driver.mp4':
  Metadata:
    encoder         : Lavf61.7.100
  Stream #0:0: Video: h264 (avc1 / 0x31637661), yuv420p(tv, unknown/bt709/iec61966-2-1, progressive), 1024x656, q=2-31, 5 fps, 10240 tbn
      Metadata:
        encoder         : Lavc61.19.100 libx264
      Side data:
        cpb: bitrate max/min/avg: 0/0/0 buffer size: 0 vbv_delay: N/A
frame=   21 fps=0.0 q=23.0 size=       0KiB time=00:00:03.80 bitrate=   0.1kbits/s speed= 6.9x    
frame=  107 fps= 89 q=23.0 size=     256KiB time=00:00:21.00 bitrate=  99.9kbits/s speed=17.5x    
frame=  202 fps=111 q=23.0 size=     512KiB time=00:00:40.00 bitrate= 104.9kbits/s speed=22.1x    
frame=  291 fps=123 q=23.0 size=     768KiB time=00:00:57.80 bitrate= 108.9kbits/s speed=24.4x    
frame=  398 fps=132 q=23.0 size=    1024KiB time=00:01:19.20 bitrate= 105.9kbits/s speed=26.3x    
[vf#0:0 @ 0x600003189040] Reconfiguring filter graph because video parameters changed to rgb24(pc, gbr), 1024x653
frame=  487 fps=139 q=23.0 size=    1024KiB time=00:01:37.00 bitrate=  86.5kbits/s speed=27.6x    
frame=  543 fps=134 q=23.0 size=    1536KiB time=00:01:48.20 bitrate= 116.3kbits/s speed=26.7x    
frame=  650 fps=138 q=23.0 size=    1536KiB time=00:02:09.60 bitrate=  97.1kbits/s speed=27.6x    
frame=  735 fps=138 q=23.0 size=    2048KiB time=00:02:26.60 bitrate= 114.4kbits/s speed=27.6x    
frame=  789 fps=135 q=23.0 size=    2304KiB time=00:02:37.40 bitrate= 119.9kbits/s speed=  27x    
[out#0/mp4 @ 0x600003588300] video:2591KiB audio:0KiB subtitle:0KiB other streams:0KiB global headers:0KiB muxing overhead: 0.430366%
frame=  893 fps=144 q=-1.0 Lsize=    2602KiB time=00:02:58.20 bitrate= 119.6kbits/s speed=28.8x    
[libx264 @ 0x123607c40] frame I:19    Avg QP: 7.80  size: 43167
[libx264 @ 0x123607c40] frame P:256   Avg QP:16.11  size:  4653
[libx264 @ 0x123607c40] frame B:618   Avg QP:22.66  size:  1037
[libx264 @ 0x123607c40] consecutive B-frames:  5.5%  4.9%  5.4% 84.2%
[libx264 @ 0x123607c40] mb I  I16..4: 57.9% 14.6% 27.5%
[libx264 @ 0x123607c40] mb P  I16..4:  2.2%  2.9%  2.7%  P16..4:  2.3%  0.9%  0.7%  0.0%  0.0%    skip:88.3%
[libx264 @ 0x123607c40] mb B  I16..4:  0.3%  0.5%  0.3%  B16..8:  2.7%  0.7%  0.3%  direct: 0.2%  skip:95.0%  L0:49.4% L1:44.6% BI: 6.0%
[libx264 @ 0x123607c40] 8x8 transform intra:29.0% inter:49.6%
[libx264 @ 0x123607c40] coded y,uvDC,uvAC intra: 36.3% 20.4% 16.5% inter: 1.2% 0.8% 0.2%
[libx264 @ 0x123607c40] i16 v,h,dc,p: 67% 28%  2%  3%
[libx264 @ 0x123607c40] i8 v,h,dc,ddl,ddr,vr,hd,vl,hu: 28% 20% 36%  2%  2%  2%  3%  2%  4%
[libx264 @ 0x123607c40] i4 v,h,dc,ddl,ddr,vr,hd,vl,hu: 32% 30% 18%  2%  4%  3%  4%  3%  4%
[libx264 @ 0x123607c40] i8c dc,h,v,p: 78% 12%  7%  3%
[libx264 @ 0x123607c40] Weighted P-Frames: Y:0.8% UV:0.8%
[libx264 @ 0x123607c40] ref P L0: 56.3%  3.3% 21.8% 18.6%  0.0%
[libx264 @ 0x123607c40] ref B L0: 76.8% 19.2%  4.0%
[libx264 @ 0x123607c40] ref B L1: 94.7%  5.3%
[libx264 @ 0x123607c40] kb/s:118.80
[ 898s] Wrote /Users/runner/work/comfy-gpu-ci/comfy-gpu-ci/comfy-test-logs/SAM3-0300/dev/macos-desktop/debug/electron_inspect/driver.mp4
ffmpeg version 7.1 Copyright (c) 2000-2024 the FFmpeg developers
  built with Apple clang version 13.1.6 (clang-1316.0.21.2.5)
  configuration: --prefix=/Volumes/tempdisk/sw --extra-cflags=-fno-stack-check --arch=arm64 --cc=/usr/bin/clang --enable-gpl --enable-libvmaf --enable-libopenjpeg --enable-libopus --enable-libmp3lame --enable-libx264 --enable-libx265 --enable-libvpx --enable-libwebp --enable-libass --enable-libfreetype --enable-fontconfig --enable-libtheora --enable-libvorbis --enable-libsnappy --enable-libaom --enable-libvidstab --enable-libzimg --enable-libsvtav1 --enable-libharfbuzz --enable-libkvazaar --pkg-config-flags=--static --enable-ffplay --enable-postproc --enable-neon --enable-runtime-cpudetect --disable-indev=qtkit --disable-indev=x11grab_xcb
  libavutil      59. 39.100 / 59. 39.100
  libavcodec     61. 19.100 / 61. 19.100
  libavformat    61.  7.100 / 61.  7.100
  libavdevice    61.  3.100 / 61.  3.100
  libavfilter    10.  4.100 / 10.  4.100
  libswscale      8.  3.100 /  8.  3.100
  libswresample   5.  3.100 /  5.  3.100
  libpostproc    58.  3.100 / 58.  3.100
Input #0, image2, from '/Users/runner/work/comfy-gpu-ci/comfy-gpu-ci/comfy-test-logs/SAM3-0300/dev/macos-desktop/debug/electron_inspect/frames/frame_%06d.png':
  Duration: 00:01:54.80, start: 0.000000, bitrate: N/A
  Stream #0:0: Video: png, rgb24(pc, gbr/bt709/iec61966-2-1), 1024x656, 5 fps, 5 tbr, 5 tbn
Stream mapping:
  Stream #0:0 -> #0:0 (png (native) -> h264 (libx264))
Press [q] to stop, [?] for help
[libx264 @ 0x143f05eb0] using cpu capabilities: ARMv8 NEON
[libx264 @ 0x143f05eb0] profile High, level 3.1, 4:2:0, 8-bit
[libx264 @ 0x143f05eb0] 264 - core 164 r3190 7ed753b - H.264/MPEG-4 AVC codec - Copyleft 2003-2024 - http://www.videolan.org/x264.html - options: cabac=1 ref=3 deblock=1:0:0 analyse=0x3:0x113 me=hex subme=7 psy=1 psy_rd=1.00:0.00 mixed_ref=1 me_range=16 chroma_me=1 trellis=1 8x8dct=1 cqm=0 deadzone=21,11 fast_pskip=1 chroma_qp_offset=-2 threads=4 lookahead_threads=1 sliced_threads=0 nr=0 decimate=1 interlaced=0 bluray_compat=0 constrained_intra=0 bframes=3 b_pyramid=2 b_adapt=1 b_bias=0 direct=1 weightb=1 open_gop=0 weightp=2 keyint=250 keyint_min=5 scenecut=40 intra_refresh=0 rc_lookahead=40 rc=crf mbtree=1 crf=23.0 qcomp=0.60 qpmin=0 qpmax=69 qpstep=4 ip_ratio=1.40 aq=1:1.00
Output #0, mp4, to '/Users/runner/work/comfy-gpu-ci/comfy-gpu-ci/comfy-test-logs/SAM3-0300/dev/macos-desktop/videos/scene_seg_interactive/driver.mp4':
  Metadata:
    encoder         : Lavf61.7.100
  Stream #0:0: Video: h264 (avc1 / 0x31637661), yuv420p(tv, unknown/bt709/iec61966-2-1, progressive), 1024x656, q=2-31, 5 fps, 10240 tbn
      Metadata:
        encoder         : Lavc61.19.100 libx264
      Side data:
        cpb: bitrate max/min/avg: 0/0/0 buffer size: 0 vbv_delay: N/A
frame=   73 fps=0.0 q=23.0 size=       0KiB time=00:00:14.20 bitrate=   0.0kbits/s speed=24.8x    
[out#0/mp4 @ 0x600002a7c000] video:128KiB audio:0KiB subtitle:0KiB other streams:0KiB global headers:0KiB muxing overhead: 2.230509%
frame=  174 fps=0.0 q=-1.0 Lsize=     131KiB time=00:00:34.40 bitrate=  31.2kbits/s speed=35.7x    
[libx264 @ 0x143f05eb0] frame I:1     Avg QP:10.04  size: 54527
[libx264 @ 0x143f05eb0] frame P:45    Avg QP:14.02  size:  1154
[libx264 @ 0x143f05eb0] frame B:128   Avg QP:24.54  size:   187
[libx264 @ 0x143f05eb0] consecutive B-frames:  0.6%  2.3%  5.2% 92.0%
[libx264 @ 0x143f05eb0] mb I  I16..4: 47.2% 21.0% 31.7%
[libx264 @ 0x143f05eb0] mb P  I16..4:  0.4%  0.1%  0.3%  P16..4:  1.5%  0.2%  0.1%  0.0%  0.0%    skip:97.4%
[libx264 @ 0x143f05eb0] mb B  I16..4:  0.0%  0.0%  0.0%  B16..8:  1.3%  0.1%  0.0%  direct: 0.0%  skip:98.5%  L0:43.4% L1:54.4% BI: 2.1%
[libx264 @ 0x143f05eb0] 8x8 transform intra:22.1% inter:31.3%
[libx264 @ 0x143f05eb0] coded y,uvDC,uvAC intra: 43.1% 18.7% 14.8% inter: 0.2% 0.2% 0.0%
[libx264 @ 0x143f05eb0] i16 v,h,dc,p: 51% 49%  0%  0%
[libx264 @ 0x143f05eb0] i8 v,h,dc,ddl,ddr,vr,hd,vl,hu: 38% 29% 30%  1%  0%  0%  0%  1%  1%
[libx264 @ 0x143f05eb0] i4 v,h,dc,ddl,ddr,vr,hd,vl,hu: 38% 33% 12%  3%  3%  2%  3%  2%  3%
[libx264 @ 0x143f05eb0] i8c dc,h,v,p: 69% 21%  9%  1%
[libx264 @ 0x143f05eb0] Weighted P-Frames: Y:0.0% UV:0.0%
[libx264 @ 0x143f05eb0] ref P L0: 78.2%  1.6% 13.5%  6.6%
[libx264 @ 0x143f05eb0] ref B L0: 68.7% 25.3%  6.0%
[libx264 @ 0x143f05eb0] ref B L1: 87.7% 12.3%
[libx264 @ 0x143f05eb0] kb/s:29.99
[ 899s]   videos/scene_seg_interactive/driver.mp4 placed (frames 320..493)
[ 899s]   screenshots/scene_seg_interactive_executed.png placed
ffmpeg version 7.1 Copyright (c) 2000-2024 the FFmpeg developers
  built with Apple clang version 13.1.6 (clang-1316.0.21.2.5)
  configuration: --prefix=/Volumes/tempdisk/sw --extra-cflags=-fno-stack-check --arch=arm64 --cc=/usr/bin/clang --enable-gpl --enable-libvmaf --enable-libopenjpeg --enable-libopus --enable-libmp3lame --enable-libx264 --enable-libx265 --enable-libvpx --enable-libwebp --enable-libass --enable-libfreetype --enable-fontconfig --enable-libtheora --enable-libvorbis --enable-libsnappy --enable-libaom --enable-libvidstab --enable-libzimg --enable-libsvtav1 --enable-libharfbuzz --enable-libkvazaar --pkg-config-flags=--static --enable-ffplay --enable-postproc --enable-neon --enable-runtime-cpudetect --disable-indev=qtkit --disable-indev=x11grab_xcb
  libavutil      59. 39.100 / 59. 39.100
  libavcodec     61. 19.100 / 61. 19.100
  libavformat    61.  7.100 / 61.  7.100
  libavdevice    61.  3.100 / 61.  3.100
  libavfilter    10.  4.100 / 10.  4.100
  libswscale      8.  3.100 /  8.  3.100
  libswresample   5.  3.100 /  5.  3.100
  libpostproc    58.  3.100 / 58.  3.100
Input #0, image2, from '/Users/runner/work/comfy-gpu-ci/comfy-gpu-ci/comfy-test-logs/SAM3-0300/dev/macos-desktop/debug/electron_inspect/frames/frame_%06d.png':
  Duration: 00:01:12.20, start: 0.000000, bitrate: N/A
  Stream #0:0: Video: png, rgb24(pc, gbr/bt709/iec61966-2-1), 1024x653, 5 fps, 5 tbr, 5 tbn
Stream mapping:
  Stream #0:0 -> #0:0 (png (native) -> h264 (libx264))
Press [q] to stop, [?] for help
[libx264 @ 0x135606740] using cpu capabilities: ARMv8 NEON
[libx264 @ 0x135606740] profile High, level 3.1, 4:2:0, 8-bit
[libx264 @ 0x135606740] 264 - core 164 r3190 7ed753b - H.264/MPEG-4 AVC codec - Copyleft 2003-2024 - http://www.videolan.org/x264.html - options: cabac=1 ref=3 deblock=1:0:0 analyse=0x3:0x113 me=hex subme=7 psy=1 psy_rd=1.00:0.00 mixed_ref=1 me_range=16 chroma_me=1 trellis=1 8x8dct=1 cqm=0 deadzone=21,11 fast_pskip=1 chroma_qp_offset=-2 threads=4 lookahead_threads=1 sliced_threads=0 nr=0 decimate=1 interlaced=0 bluray_compat=0 constrained_intra=0 bframes=3 b_pyramid=2 b_adapt=1 b_bias=0 direct=1 weightb=1 open_gop=0 weightp=2 keyint=250 keyint_min=5 scenecut=40 intra_refresh=0 rc_lookahead=40 rc=crf mbtree=1 crf=23.0 qcomp=0.60 qpmin=0 qpmax=69 qpstep=4 ip_ratio=1.40 aq=1:1.00
Output #0, mp4, to '/Users/runner/work/comfy-gpu-ci/comfy-gpu-ci/comfy-test-logs/SAM3-0300/dev/macos-desktop/videos/image_seg_point/driver.mp4':
  Metadata:
    encoder         : Lavf61.7.100
  Stream #0:0: Video: h264 (avc1 / 0x31637661), yuv420p(tv, unknown/bt709/iec61966-2-1, progressive), 1024x654, q=2-31, 5 fps, 10240 tbn
      Metadata:
        encoder         : Lavc61.19.100 libx264
      Side data:
        cpb: bitrate max/min/avg: 0/0/0 buffer size: 0 vbv_delay: N/A
[out#0/mp4 @ 0x600003f50300] video:107KiB audio:0KiB subtitle:0KiB other streams:0KiB global headers:0KiB muxing overhead: 1.974229%
frame=  109 fps=0.0 q=-1.0 Lsize=     110KiB time=00:00:21.40 bitrate=  41.9kbits/s speed=36.5x    
[libx264 @ 0x135606740] frame I:2     Avg QP:12.37  size: 34395
[libx264 @ 0x135606740] frame P:28    Avg QP:15.16  size:  1210
[libx264 @ 0x135606740] frame B:79    Avg QP:23.75  size:    84
[libx264 @ 0x135606740] consecutive B-frames:  2.8%  1.8%  0.0% 95.4%
[libx264 @ 0x135606740] mb I  I16..4: 48.2% 26.8% 25.0%
[libx264 @ 0x135606740] mb P  I16..4:  0.5%  0.3%  0.4%  P16..4:  0.8%  0.1%  0.1%  0.0%  0.0%    skip:97.9%
[libx264 @ 0x135606740] mb B  I16..4:  0.1%  0.1%  0.0%  B16..8:  0.8%  0.0%  0.0%  direct: 0.1%  skip:99.0%  L0:49.1% L1:50.5% BI: 0.3%
[libx264 @ 0x135606740] 8x8 transform intra:27.9% inter:63.1%
[libx264 @ 0x135606740] coded y,uvDC,uvAC intra: 18.1% 19.3% 14.7% inter: 0.1% 0.2% 0.1%
[libx264 @ 0x135606740] i16 v,h,dc,p: 54% 40%  1%  6%
[libx264 @ 0x135606740] i8 v,h,dc,ddl,ddr,vr,hd,vl,hu: 54% 19% 22%  0%  2%  1%  1%  0%  0%
[libx264 @ 0x135606740] i4 v,h,dc,ddl,ddr,vr,hd,vl,hu: 35% 32% 17%  2%  3%  3%  4%  2%  3%
[libx264 @ 0x135606740] i8c dc,h,v,p: 71% 16%  7%  5%
[libx264 @ 0x135606740] Weighted P-Frames: Y:0.0% UV:0.0%
[libx264 @ 0x135606740] ref P L0: 83.8%  3.4% 10.5%  2.3%
[libx264 @ 0x135606740] ref B L0: 81.0% 18.1%  0.9%
[libx264 @ 0x135606740] ref B L1: 95.8%  4.2%
[libx264 @ 0x135606740] kb/s:40.10
[ 900s]   videos/image_seg_point/driver.mp4 placed (frames 533..641)
[ 900s]   screenshots/image_seg_point_executed.png placed
ffmpeg version 7.1 Copyright (c) 2000-2024 the FFmpeg developers
  built with Apple clang version 13.1.6 (clang-1316.0.21.2.5)
  configuration: --prefix=/Volumes/tempdisk/sw --extra-cflags=-fno-stack-check --arch=arm64 --cc=/usr/bin/clang --enable-gpl --enable-libvmaf --enable-libopenjpeg --enable-libopus --enable-libmp3lame --enable-libx264 --enable-libx265 --enable-libvpx --enable-libwebp --enable-libass --enable-libfreetype --enable-fontconfig --enable-libtheora --enable-libvorbis --enable-libsnappy --enable-libaom --enable-libvidstab --enable-libzimg --enable-libsvtav1 --enable-libharfbuzz --enable-libkvazaar --pkg-config-flags=--static --enable-ffplay --enable-postproc --enable-neon --enable-runtime-cpudetect --disable-indev=qtkit --disable-indev=x11grab_xcb
  libavutil      59. 39.100 / 59. 39.100
  libavcodec     61. 19.100 / 61. 19.100
  libavformat    61.  7.100 / 61.  7.100
  libavdevice    61.  3.100 / 61.  3.100
  libavfilter    10.  4.100 / 10.  4.100
  libswscale      8.  3.100 /  8.  3.100
  libswresample   5.  3.100 /  5.  3.100
  libpostproc    58.  3.100 / 58.  3.100
Input #0, image2, from '/Users/runner/work/comfy-gpu-ci/comfy-gpu-ci/comfy-test-logs/SAM3-0300/dev/macos-desktop/debug/electron_inspect/frames/frame_%06d.png':
  Duration: 00:00:43.80, start: 0.000000, bitrate: N/A
  Stream #0:0: Video: png, rgb24(pc, gbr/bt709/iec61966-2-1), 1024x653, 5 fps, 5 tbr, 5 tbn
Stream mapping:
  Stream #0:0 -> #0:0 (png (native) -> h264 (libx264))
Press [q] to stop, [?] for help
[libx264 @ 0x11ef058c0] using cpu capabilities: ARMv8 NEON
[libx264 @ 0x11ef058c0] profile High, level 3.1, 4:2:0, 8-bit
[libx264 @ 0x11ef058c0] 264 - core 164 r3190 7ed753b - H.264/MPEG-4 AVC codec - Copyleft 2003-2024 - http://www.videolan.org/x264.html - options: cabac=1 ref=3 deblock=1:0:0 analyse=0x3:0x113 me=hex subme=7 psy=1 psy_rd=1.00:0.00 mixed_ref=1 me_range=16 chroma_me=1 trellis=1 8x8dct=1 cqm=0 deadzone=21,11 fast_pskip=1 chroma_qp_offset=-2 threads=4 lookahead_threads=1 sliced_threads=0 nr=0 decimate=1 interlaced=0 bluray_compat=0 constrained_intra=0 bframes=3 b_pyramid=2 b_adapt=1 b_bias=0 direct=1 weightb=1 open_gop=0 weightp=2 keyint=250 keyint_min=5 scenecut=40 intra_refresh=0 rc_lookahead=40 rc=crf mbtree=1 crf=23.0 qcomp=0.60 qpmin=0 qpmax=69 qpstep=4 ip_ratio=1.40 aq=1:1.00
Output #0, mp4, to '/Users/runner/work/comfy-gpu-ci/comfy-gpu-ci/comfy-test-logs/SAM3-0300/dev/macos-desktop/videos/image_seg_text/driver.mp4':
  Metadata:
    encoder         : Lavf61.7.100
  Stream #0:0: Video: h264 (avc1 / 0x31637661), yuv420p(tv, unknown/bt709/iec61966-2-1, progressive), 1024x654, q=2-31, 5 fps, 10240 tbn
      Metadata:
        encoder         : Lavc61.19.100 libx264
      Side data:
        cpb: bitrate max/min/avg: 0/0/0 buffer size: 0 vbv_delay: N/A
[out#0/mp4 @ 0x600000a0c000] video:118KiB audio:0KiB subtitle:0KiB other streams:0KiB global headers:0KiB muxing overhead: 1.561933%
frame=   86 fps=0.0 q=-1.0 Lsize=     120KiB time=00:00:16.80 bitrate=  58.7kbits/s speed=  33x    
[libx264 @ 0x11ef058c0] frame I:2     Avg QP:12.27  size: 43333
[libx264 @ 0x11ef058c0] frame P:22    Avg QP:15.46  size:  1294
[libx264 @ 0x11ef058c0] frame B:62    Avg QP:23.45  size:    89
[libx264 @ 0x11ef058c0] consecutive B-frames:  2.3%  4.7%  0.0% 93.0%
[libx264 @ 0x11ef058c0] mb I  I16..4: 42.6% 25.4% 32.0%
[libx264 @ 0x11ef058c0] mb P  I16..4:  0.7%  0.3%  0.6%  P16..4:  1.0%  0.1%  0.1%  0.0%  0.0%    skip:97.2%
[libx264 @ 0x11ef058c0] mb B  I16..4:  0.1%  0.1%  0.0%  B16..8:  1.1%  0.1%  0.0%  direct: 0.0%  skip:98.7%  L0:36.8% L1:62.9% BI: 0.3%
[libx264 @ 0x11ef058c0] 8x8 transform intra:24.7% inter:61.1%
[libx264 @ 0x11ef058c0] coded y,uvDC,uvAC intra: 35.3% 17.2% 13.7% inter: 0.1% 0.2% 0.0%
[libx264 @ 0x11ef058c0] i16 v,h,dc,p: 47% 47%  0%  5%
[libx264 @ 0x11ef058c0] i8 v,h,dc,ddl,ddr,vr,hd,vl,hu: 55% 16% 24%  0%  2%  1%  1%  0%  1%
[libx264 @ 0x11ef058c0] i4 v,h,dc,ddl,ddr,vr,hd,vl,hu: 42% 32% 12%  2%  3%  2%  3%  2%  3%
[libx264 @ 0x11ef058c0] i8c dc,h,v,p: 73% 15%  7%  4%
[libx264 @ 0x11ef058c0] Weighted P-Frames: Y:0.0% UV:0.0%
[libx264 @ 0x11ef058c0] ref P L0: 70.7%  1.8% 24.0%  3.5%
[libx264 @ 0x11ef058c0] ref B L0: 73.9% 24.4%  1.7%
[libx264 @ 0x11ef058c0] ref B L1: 93.0%  7.0%
[libx264 @ 0x11ef058c0] kb/s:56.11
[ 900s]   videos/image_seg_text/driver.mp4 placed (frames 675..760)
[ 900s]   screenshots/image_seg_text_executed.png placed
ffmpeg version 7.1 Copyright (c) 2000-2024 the FFmpeg developers
  built with Apple clang version 13.1.6 (clang-1316.0.21.2.5)
  configuration: --prefix=/Volumes/tempdisk/sw --extra-cflags=-fno-stack-check --arch=arm64 --cc=/usr/bin/clang --enable-gpl --enable-libvmaf --enable-libopenjpeg --enable-libopus --enable-libmp3lame --enable-libx264 --enable-libx265 --enable-libvpx --enable-libwebp --enable-libass --enable-libfreetype --enable-fontconfig --enable-libtheora --enable-libvorbis --enable-libsnappy --enable-libaom --enable-libvidstab --enable-libzimg --enable-libsvtav1 --enable-libharfbuzz --enable-libkvazaar --pkg-config-flags=--static --enable-ffplay --enable-postproc --enable-neon --enable-runtime-cpudetect --disable-indev=qtkit --disable-indev=x11grab_xcb
  libavutil      59. 39.100 / 59. 39.100
  libavcodec     61. 19.100 / 61. 19.100
  libavformat    61.  7.100 / 61.  7.100
  libavdevice    61.  3.100 / 61.  3.100
  libavfilter    10.  4.100 / 10.  4.100
  libswscale      8.  3.100 /  8.  3.100
  libswresample   5.  3.100 /  5.  3.100
  libpostproc    58.  3.100 / 58.  3.100
Input #0, image2, from '/Users/runner/work/comfy-gpu-ci/comfy-gpu-ci/comfy-test-logs/SAM3-0300/dev/macos-desktop/debug/electron_inspect/frames/frame_%06d.png':
  Duration: 00:00:19.00, start: 0.000000, bitrate: N/A
  Stream #0:0: Video: png, rgb24(pc, gbr/bt709/iec61966-2-1), 1024x653, 5 fps, 5 tbr, 5 tbn
Stream mapping:
  Stream #0:0 -> #0:0 (png (native) -> h264 (libx264))
Press [q] to stop, [?] for help
[libx264 @ 0x11ff06140] using cpu capabilities: ARMv8 NEON
[libx264 @ 0x11ff06140] profile High, level 3.1, 4:2:0, 8-bit
[libx264 @ 0x11ff06140] 264 - core 164 r3190 7ed753b - H.264/MPEG-4 AVC codec - Copyleft 2003-2024 - http://www.videolan.org/x264.html - options: cabac=1 ref=3 deblock=1:0:0 analyse=0x3:0x113 me=hex subme=7 psy=1 psy_rd=1.00:0.00 mixed_ref=1 me_range=16 chroma_me=1 trellis=1 8x8dct=1 cqm=0 deadzone=21,11 fast_pskip=1 chroma_qp_offset=-2 threads=4 lookahead_threads=1 sliced_threads=0 nr=0 decimate=1 interlaced=0 bluray_compat=0 constrained_intra=0 bframes=3 b_pyramid=2 b_adapt=1 b_bias=0 direct=1 weightb=1 open_gop=0 weightp=2 keyint=250 keyint_min=5 scenecut=40 intra_refresh=0 rc_lookahead=40 rc=crf mbtree=1 crf=23.0 qcomp=0.60 qpmin=0 qpmax=69 qpstep=4 ip_ratio=1.40 aq=1:1.00
Output #0, mp4, to '/Users/runner/work/comfy-gpu-ci/comfy-gpu-ci/comfy-test-logs/SAM3-0300/dev/macos-desktop/videos/scene_seg/driver.mp4':
  Metadata:
    encoder         : Lavf61.7.100
  Stream #0:0: Video: h264 (avc1 / 0x31637661), yuv420p(tv, unknown/bt709/iec61966-2-1, progressive), 1024x654, q=2-31, 5 fps, 10240 tbn
      Metadata:
        encoder         : Lavc61.19.100 libx264
      Side data:
        cpb: bitrate max/min/avg: 0/0/0 buffer size: 0 vbv_delay: N/A
frame=   49 fps=0.0 q=23.0 size=       0KiB time=N/A bitrate=N/A speed=N/A    
[out#0/mp4 @ 0x600001494000] video:128KiB audio:0KiB subtitle:0KiB other streams:0KiB global headers:0KiB muxing overhead: 1.533597%
frame=   95 fps=0.0 q=-1.0 Lsize=     130KiB time=00:00:18.60 bitrate=  57.0kbits/s speed=28.6x    
[libx264 @ 0x11ff06140] frame I:2     Avg QP:11.74  size: 33182
[libx264 @ 0x11ff06140] frame P:25    Avg QP:16.33  size:  2246
[libx264 @ 0x11ff06140] frame B:68    Avg QP:22.59  size:   109
[libx264 @ 0x11ff06140] consecutive B-frames:  3.2%  4.2%  0.0% 92.6%
[libx264 @ 0x11ff06140] mb I  I16..4: 52.8% 22.7% 24.5%
[libx264 @ 0x11ff06140] mb P  I16..4:  0.8%  0.2%  0.8%  P16..4:  1.3%  0.3%  0.1%  0.0%  0.0%    skip:96.5%
[libx264 @ 0x11ff06140] mb B  I16..4:  0.0%  0.1%  0.0%  B16..8:  1.6%  0.1%  0.0%  direct: 0.0%  skip:98.2%  L0:53.3% L1:46.4% BI: 0.3%
[libx264 @ 0x11ff06140] 8x8 transform intra:21.5% inter:32.8%
[libx264 @ 0x11ff06140] coded y,uvDC,uvAC intra: 18.7% 17.8% 13.3% inter: 0.2% 0.2% 0.1%
[libx264 @ 0x11ff06140] i16 v,h,dc,p: 62% 36%  0%  2%
[libx264 @ 0x11ff06140] i8 v,h,dc,ddl,ddr,vr,hd,vl,hu: 38% 16% 43%  0%  1%  1%  1%  0%  1%
[libx264 @ 0x11ff06140] i4 v,h,dc,ddl,ddr,vr,hd,vl,hu: 32% 34% 17%  2%  3%  2%  4%  2%  4%
[libx264 @ 0x11ff06140] i8c dc,h,v,p: 72% 17%  9%  2%
[libx264 @ 0x11ff06140] Weighted P-Frames: Y:0.0% UV:0.0%
[libx264 @ 0x11ff06140] ref P L0: 72.1%  3.6% 17.3%  7.0%
[libx264 @ 0x11ff06140] ref B L0: 78.3% 19.4%  2.3%
[libx264 @ 0x11ff06140] ref B L1: 97.0%  3.0%
[libx264 @ 0x11ff06140] kb/s:54.70
[ 901s]   videos/scene_seg/driver.mp4 placed (frames 799..893)
[ 901s]   screenshots/scene_seg_executed.png placed
[ 901s]   removed /Users/runner/work/comfy-gpu-ci/comfy-gpu-ci/comfy-test-logs/SAM3-0300/dev/macos-desktop/debug/electron_inspect/frames after successful encode
